<?xml version="1.0" encoding="UTF-8" standalone="no"?>
<svg width="19px" height="30px" viewBox="0 0 19 30" version="1.1" xmlns="http://www.w3.org/2000/svg" xmlns:xlink="http://www.w3.org/1999/xlink" xmlns:sketch="http://www.bohemiancoding.com/sketch/ns">
    <title>pin</title>
    <description>Created with Sketch (http://www.bohemiancoding.com/sketch)</description>
    <defs></defs>
    <g id="Page-1" stroke="none" stroke-width="1" fill="none" fill-rule="evenodd" sketch:type="MSPage">
        <g id="digital-underground-website" sketch:type="MSArtboardGroup" transform="translate(-167.000000, -1735.000000)">
            <rect id="background" fill="#FFFFFF" sketch:type="MSShapeGroup" x="0" y="0" width="1440" height="3500"></rect>
            <path d="M-2,1445 L-2,2459 L1438,2526 L1438,1519.5 L-2,1445 Z" id="Rectangle-5" fill="#F9F9F9" sketch:type="MSShapeGroup"></path>
            <g id="user-profile---moose" sketch:type="MSLayerGroup" transform="translate(167.000000, 1735.000000)" fill="#FFBE7E">
                <path d="M9.5,28 C12.5,27.9999981 19,14.7467054 19,9.5 C19,4.25329462 14.7467054,0 9.5,0 C4.25329462,0 0,4.25329462 0,9.5 C0,14.7467054 6.5,28.0000017 9.5,28 Z M9.5,15.5 C12.8137087,15.5 15.5,12.8137087 15.5,9.5 C15.5,6.18629134 12.8137087,3.5 9.5,3.5 C6.18629134,3.5 3.5,6.18629134 3.5,9.5 C3.5,12.8137087 6.18629134,15.5 9.5,15.5 Z" id="Oval-2" sketch:type="MSShapeGroup"></path>
            </g>
        </g>
    </g>
</svg>